<svg xmlns="http://www.w3.org/2000/svg" viewBox="0 0 1198.23 278.37">
  <defs>
    <style>.cls-1{fill:#fff;}</style>
  </defs>
  <g id="Layer_2" data-name="Layer 2">
    <g id="Layer_1-2" data-name="Layer 1">
      <path class="cls-1" d="M392,206H503.79c-1.24-6.62-2.87-13.84-5-21.5H356.27Z"/>
      <path class="cls-1" d="M421.87,224h84.61c-.4-3.54-.91-7.42-1.58-11.59H402.59Z"/>
      <path class="cls-1" d="M420.91,62.57H86.68a263.25,263.25,0,0,0-36.77,39.92H457.79A272,272,0,0,0,420.91,62.57Z"/>
      <path class="cls-1"
            d="M217.23,143.49l35-21.48L288,143.49H483.08a244.28,244.28,0,0,0-20.77-34.84H45.43a253.47,253.47,0,0,0-20.61,34.84Z"/>
      <path class="cls-1" d="M252.31,0A249.43,249.43,0,0,0,93.93,56.42H413.68C372.3,22.51,318.42,0,252.31,0Z"/>
      <path class="cls-1" d="M344.89,177.69H496.71a244.83,244.83,0,0,0-10.42-27.37H299.35Z"/>
      <path class="cls-1" d="M468.29,251.85H508.1c0-2.46-.09-4.93-.19-7.32h-51.8Z"/>
      <path class="cls-1" d="M478.83,258.18l7.73,4.65h21.53c0-1.49,0-3.05,0-4.65Z"/>
      <path class="cls-1" d="M507.76,275.57c.05-1.19.13-3.45.2-6.41H497.1Z"/>
      <path class="cls-1" d="M445.56,238.19h62.08c-.12-2.27-.29-4.92-.54-7.9H432.41Z"/>
      <path class="cls-1" d="M150.33,184.53H9.05c-2.2,7.66-3.87,14.87-5.14,21.5H115.27Z"/>
      <path class="cls-1" d="M206.08,150.32H21.6a251.91,251.91,0,0,0-10.49,27.37H161.47Z"/>
      <path class="cls-1" d="M.07,269.16c0,4.24,0,7.34,0,7.34H.4l12-7.34Z"/>
      <path class="cls-1" d="M252.11,198.09,8.91,276.49H496v-.23h0Z"/>
      <path class="cls-1" d="M30.25,258.18H.06v4.65H22.68Z"/>
      <path class="cls-1" d="M.07,251.85H40.58l11.93-7.32H0c0,2.37.09,3.66.09,3.66C.08,249.19.07,250.45.07,251.85Z"/>
      <path class="cls-1" d="M75.73,230.29H.59c-.24,3-.39,5.61-.48,7.9H62.84Z"/>
      <path class="cls-1" d="M105,212.36H2.79c-.68,4.17-1.2,8-1.6,11.59H86.05Z"/>
      <path class="cls-1"
            d="M616.39,33.2l-47.3,103.42h13.14l12-24.84h44.26l12,24.84H663.7Zm0,67.23H599l17.38-39.37,17.39,39.37Z"/>
      <path class="cls-1"
            d="M710.3,37.15H692.4v99.47h12.2V95.41h7.55a44.68,44.68,0,0,0,21-4.53C746.09,84.73,746.56,69,746.56,69V62.41C746.56,35.91,710.3,37.15,710.3,37.15Zm2.94,47.06h-8.55V48.47h8.37s22.28.45,22.28,17.87S713.24,84.21,713.24,84.21Z"/>
      <polygon class="cls-1"
               points="777.5 37.15 777.5 136.62 831.18 136.62 831.18 125.28 790.08 125.28 790.08 87.54 829.8 87.54 829.8 76.81 790.08 76.81 790.08 48.47 831.18 48.47 831.18 37.15 777.5 37.15"/>
      <polygon class="cls-1"
               points="904.88 84.66 932.21 37.15 917.73 37.15 897.79 73.13 877.85 37.15 863.37 37.15 890.7 84.66 859.68 136.62 873.56 136.62 897.79 96.62 922.01 136.62 935.9 136.62 904.88 84.66"/>
      <polygon class="cls-1"
               points="716.95 176.74 692.83 218.99 668.71 176.74 654.24 176.74 686.44 233.03 686.44 275.97 692.83 275.97 699.21 275.97 699.21 233.03 731.42 176.74 716.95 176.74"/>
      <polygon class="cls-1"
               points="860.2 176.74 830.38 176.74 830.38 187.86 853.84 187.86 853.84 275.97 860.2 275.97 866.56 275.97 866.56 187.86 890.01 187.86 890.01 176.74 860.2 176.74"/>
      <polygon class="cls-1"
               points="917.85 176.62 917.85 276.09 971.54 276.09 971.54 264.74 930.43 264.74 930.43 227.01 970.16 227.01 970.16 216.27 930.43 216.27 930.43 187.94 971.54 187.94 971.54 176.62 917.85 176.62"/>
      <polygon class="cls-1"
               points="1086.66 172.66 1052.43 250.43 1018.2 172.66 997.94 276.09 1010.7 275.97 1022.39 210.61 1052.43 277.44 1082.47 210.61 1094.16 275.97 1106.91 276.09 1086.66 172.66"/>
      <path class="cls-1"
            d="M624.64,196l10-6.26s-8.78-14.77-27.15-14.77-29.56,12.64-29.56,25.29,9.85,19.17,9.85,19.17a150.08,150.08,0,0,0,18.51,8.79c8.38,3.06,18.77,8.52,18.77,19.57s-9.32,19.43-18.77,19.43-20.5-7.59-20.5-18.64c-4.4.8-12.65,2.27-12.65,2.27s4.66,27.55,30.75,27.55,33.81-19.17,33.81-30.75-5.85-20.9-18-26.75-29.28-8.66-29.28-20.91S615.32,178.8,624.64,196Z"/>
      <path class="cls-1"
            d="M797.37,196l10-6.26s-8.78-14.77-27.15-14.77-29.56,12.64-29.56,25.29,9.85,19.17,9.85,19.17A150.08,150.08,0,0,0,779,228.19c8.39,3.06,18.77,8.52,18.77,19.57s-9.32,19.43-18.77,19.43-20.5-7.59-20.5-18.64c-4.4.8-12.65,2.27-12.65,2.27s4.66,27.55,30.75,27.55,33.82-19.17,33.82-30.75-5.86-20.9-18-26.75-29.28-8.66-29.28-20.91S788.05,178.8,797.37,196Z"/>
      <path class="cls-1"
            d="M1178.39,196l10-6.26s-8.78-14.77-27.15-14.77-29.56,12.64-29.56,25.29,9.86,19.17,9.86,19.17a149.6,149.6,0,0,0,18.5,8.79c8.39,3.06,18.77,8.52,18.77,19.57s-9.32,19.43-18.77,19.43-20.5-7.59-20.5-18.64c-4.39.8-12.65,2.27-12.65,2.27s4.66,27.55,30.75,27.55,33.82-19.17,33.82-30.75-5.86-20.9-18-26.75-29.29-8.66-29.29-20.91S1169.07,178.8,1178.39,196Z"/>
      <path class="cls-1" d="M1190.21,272.92h-1.58v-.58h3.85v.58h-1.59v4.62h-.68Z"/>
      <path class="cls-1"
            d="M1197.44,275.26c0-.72-.09-1.6-.08-2.24h0c-.18.6-.39,1.25-.66,2l-.92,2.52h-.5l-.84-2.47c-.25-.74-.46-1.41-.61-2h0c0,.64-.06,1.52-.1,2.29l-.14,2.23h-.64l.36-5.2h.86l.88,2.52c.22.64.4,1.21.53,1.75h0c.13-.52.32-1.09.55-1.75l.93-2.52h.85l.33,5.2h-.66Z"/>
    </g>
  </g>
</svg>
